<svg width="190" height="60" viewBox="0 0 190 60" fill="none" xmlns="http://www.w3.org/2000/svg">
<rect x="75" width="40" height="24" rx="4" fill="#793EF5"/>
<path d="M87.9769 16V8.608H87.7729L86.5129 11.356H85.0369L86.8249 7.6H89.3689V16H87.9769ZM90.7529 16V15.028C90.7529 14.436 90.8489 13.952 91.0409 13.576C91.2409 13.192 91.5249 12.88 91.8929 12.64C92.2609 12.392 92.7089 12.188 93.2369 12.028L94.0049 11.788C94.3169 11.684 94.5809 11.56 94.7969 11.416C95.0129 11.272 95.1809 11.096 95.3009 10.888C95.4209 10.672 95.4809 10.42 95.4809 10.132V10.084C95.4809 9.652 95.3329 9.312 95.0369 9.064C94.7409 8.808 94.3449 8.68 93.8489 8.68C93.3529 8.68 92.9489 8.816 92.6369 9.088C92.3249 9.352 92.1689 9.744 92.1689 10.264V10.468H90.7769V10.288C90.7769 9.68 90.9129 9.164 91.1849 8.74C91.4569 8.316 91.8249 7.992 92.2889 7.768C92.7529 7.544 93.2729 7.432 93.8489 7.432C94.4249 7.432 94.9409 7.544 95.3969 7.768C95.8609 7.984 96.2209 8.288 96.4769 8.68C96.7409 9.072 96.8729 9.532 96.8729 10.06V10.18C96.8729 10.716 96.7649 11.168 96.5489 11.536C96.3329 11.904 96.0329 12.208 95.6489 12.448C95.2729 12.68 94.8449 12.872 94.3649 13.024L93.6209 13.252C93.2609 13.364 92.9729 13.484 92.7569 13.612C92.5489 13.74 92.4009 13.888 92.3129 14.056C92.2249 14.216 92.1809 14.42 92.1809 14.668V14.752H96.8009V16H90.7529ZM101.237 16.168C100.253 16.168 99.4653 15.892 98.8733 15.34C98.2813 14.788 97.9853 13.956 97.9853 12.844V10.756C97.9853 9.668 98.2813 8.844 98.8733 8.284C99.4653 7.716 100.253 7.432 101.237 7.432C102.229 7.432 103.017 7.716 103.601 8.284C104.193 8.844 104.489 9.668 104.489 10.756V12.844C104.489 13.956 104.193 14.788 103.601 15.34C103.017 15.892 102.229 16.168 101.237 16.168ZM101.237 14.92C101.869 14.92 102.333 14.744 102.629 14.392C102.933 14.04 103.085 13.54 103.085 12.892V10.696C103.085 10.04 102.921 9.54 102.593 9.196C102.265 8.852 101.813 8.68 101.237 8.68C100.645 8.68 100.189 8.856 99.8693 9.208C99.5493 9.56 99.3893 10.056 99.3893 10.696V12.892C99.3893 13.556 99.5413 14.06 99.8453 14.404C100.157 14.748 100.621 14.92 101.237 14.92Z" fill="white"/>
<path d="M0 49C0 47.3431 1.34315 46 3 46V46C4.65685 46 6 47.3431 6 49V60H0V49Z" fill="#C4C4C4"/>
<path d="M9.6842 45.3999C9.6842 43.743 11.0273 42.3999 12.6842 42.3999V42.3999C14.3411 42.3999 15.6842 43.743 15.6842 45.3999V59.9999H9.6842V45.3999Z" fill="#C4C4C4"/>
<path d="M19.3684 43C19.3684 41.3431 20.7116 40 22.3684 40V40C24.0253 40 25.3684 41.3431 25.3684 43V60H19.3684V43Z" fill="#C4C4C4"/>
<path d="M29.0526 45.3999C29.0526 43.743 30.3958 42.3999 32.0526 42.3999V42.3999C33.7095 42.3999 35.0526 43.743 35.0526 45.3999V59.9999H29.0526V45.3999Z" fill="#C4C4C4"/>
<path d="M38.7368 45.3999C38.7368 43.743 40.08 42.3999 41.7368 42.3999V42.3999C43.3937 42.3999 44.7368 43.743 44.7368 45.3999V59.9999H38.7368V45.3999Z" fill="#C4C4C4"/>
<path d="M48.421 49C48.421 47.3431 49.7642 46 51.421 46V46C53.0779 46 54.421 47.3431 54.421 49V60H48.421V49Z" fill="#C4C4C4"/>
<path d="M58.1052 44.2002C58.1052 42.5433 59.4484 41.2002 61.1052 41.2002V41.2002C62.7621 41.2002 64.1052 42.5433 64.1052 44.2002V60.0002H58.1052V44.2002Z" fill="#C4C4C4"/>
<path d="M67.7894 40.6001C67.7894 38.9432 69.1326 37.6001 70.7894 37.6001V37.6001C72.4463 37.6001 73.7894 38.9432 73.7894 40.6001V60.0001H67.7894V40.6001Z" fill="#C4C4C4"/>
<path d="M77.4736 39C77.4736 37.3431 78.8168 36 80.4736 36V36C82.1305 36 83.4736 37.3431 83.4736 39V60H77.4736V39Z" fill="#C4C4C4"/>
<path d="M87.158 35.3999C87.158 33.743 88.5011 32.3999 90.158 32.3999V32.3999C91.8148 32.3999 93.158 33.743 93.158 35.3999V59.9999H87.158V35.3999Z" fill="#793EF5"/>
<path d="M96.8422 39C96.8422 37.3431 98.1853 36 99.8422 36V36C101.499 36 102.842 37.3431 102.842 39V60H96.8422V39Z" fill="#C4C4C4"/>
<path d="M106.526 40.6001C106.526 38.9432 107.87 37.6001 109.526 37.6001V37.6001C111.183 37.6001 112.526 38.9432 112.526 40.6001V60.0001H106.526V40.6001Z" fill="#C4C4C4"/>
<path d="M116.211 31C116.211 29.3431 117.554 28 119.211 28V28C120.867 28 122.211 29.3431 122.211 31V60H116.211V31Z" fill="#C4C4C4"/>
<path d="M125.895 35.3999C125.895 33.743 127.238 32.3999 128.895 32.3999V32.3999C130.552 32.3999 131.895 33.743 131.895 35.3999V59.9999H125.895V35.3999Z" fill="#C4C4C4"/>
<path d="M135.579 40.6001C135.579 38.9432 136.922 37.6001 138.579 37.6001V37.6001C140.236 37.6001 141.579 38.9432 141.579 40.6001V60.0001H135.579V40.6001Z" fill="#C4C4C4"/>
<path d="M145.263 45.3999C145.263 43.743 146.606 42.3999 148.263 42.3999V42.3999C149.92 42.3999 151.263 43.743 151.263 45.3999V59.9999H145.263V45.3999Z" fill="#C4C4C4"/>
<path d="M154.947 43C154.947 41.3431 156.291 40 157.947 40V40C159.604 40 160.947 41.3431 160.947 43V60H154.947V43Z" fill="#C4C4C4"/>
<path d="M164.632 49C164.632 47.3431 165.975 46 167.632 46V46C169.288 46 170.632 47.3431 170.632 49V60H164.632V49Z" fill="#C4C4C4"/>
<path d="M174.316 52.2002C174.316 50.5433 175.659 49.2002 177.316 49.2002V49.2002C178.973 49.2002 180.316 50.5433 180.316 52.2002V60.0002H174.316V52.2002Z" fill="#C4C4C4"/>
<path d="M184 56.2002C184 54.5433 185.343 53.2002 187 53.2002V53.2002C188.657 53.2002 190 54.5433 190 56.2002V60.0002H184V56.2002Z" fill="#C4C4C4"/>
</svg>

